# xmcd
#
# Track frame offsets: 
#        150
#        19402
#        32242
#        49137
#        61909
#        85140
#        106263
#        126146
#        142965
#        159855
#        177542
#        196131
#        213361
#        227783
#        242725
#        256807
#        275418
#        287864
#        304233
#        324108
#        341820
#
# Disc length: 4778 seconds
#
# Revision: 0
# Processed by: cddbd v1.5.2PL0 Copyright (c) Steve Scherf et al.
# Submitted via: ExactAudioCopy v1.0b3
#
DISCID=2d12a815
DTITLE=Demis Roussos - Greater Love
DYEAR=1986
DGENRE=Pop
TTITLE0=Summer In Her Eyes
TTITLE1=Follow Me
TTITLE2=Quantanamera
TTITLE3=I Miss You
TTITLE4=How Greater Love
TTITLE5=Tropicana Bay
TTITLE6=Greater Love
TTITLE7=Island Of Love
TTITLE8=Summerwine (Featuring Nancy Boyd)
TTITLE9=Amis Pour La Vie
TTITLE10=Tropicana Bay (Single Version)
TTITLE11=I Found You
TTITLE12=Anytime At All
TTITLE13=I Miss You (First Version)
TTITLE14=Sing Da De Di
TTITLE15=Where Is Your Love Today
TTITLE16=Another Time
TTITLE17=Fly Away With Me
TTITLE18=Friends Of A Lifetime
TTITLE19=Think It Over
TTITLE20=In Love
EXTD=
EXTT0=
EXTT1=
EXTT2=
EXTT3=
EXTT4=
EXTT5=
EXTT6=
EXTT7=
EXTT8=
EXTT9=
EXTT10=
EXTT11=
EXTT12=
EXTT13=
EXTT14=
EXTT15=
EXTT16=
EXTT17=
EXTT18=
EXTT19=
EXTT20=
PLAYORDER=
